<svg id="svg" xmlns="http://www.w3.org/2000/svg" xmlns:xlink="http://www.w3.org/1999/xlink" width="400" height="174.5656706045865" viewBox="0, 0, 400,174.5656706045865" version="1.1"><g id="svgg"><path id="path0" d="M131.209 5.687 C 130.057 6.314,128.250 7.284,127.193 7.844 C 126.137 8.404,124.291 9.391,123.090 10.037 C 121.890 10.683,120.358 11.506,119.686 11.866 C 113.556 15.150,108.458 17.892,106.463 18.977 L 104.065 20.281 103.182 22.113 C 102.696 23.120,101.249 26.197,99.967 28.951 C 98.685 31.706,97.265 34.745,96.811 35.705 C 95.839 37.764,94.763 40.060,94.177 41.324 C 93.947 41.822,93.758 42.344,93.758 42.482 C 93.758 42.719,98.086 44.697,98.604 44.697 C 98.878 44.697,99.817 42.818,102.816 36.272 C 105.284 30.885,107.116 26.966,107.900 25.404 C 108.387 24.430,108.800 24.119,111.480 22.702 C 112.440 22.194,114.483 21.094,116.019 20.257 C 117.556 19.420,119.481 18.380,120.297 17.944 C 121.113 17.509,122.842 16.584,124.138 15.888 C 125.434 15.193,127.163 14.269,127.979 13.835 C 128.795 13.402,129.699 12.911,129.987 12.744 C 133.506 10.711,133.083 10.735,136.082 12.395 C 137.269 13.051,139.212 14.117,140.399 14.763 C 142.848 16.095,143.633 16.522,147.185 18.455 C 148.577 19.213,151.707 20.929,154.140 22.269 L 158.563 24.705 159.312 26.277 C 159.723 27.141,160.318 28.398,160.633 29.070 C 168.220 45.273,168.688 46.240,168.998 46.373 C 169.148 46.437,169.585 46.549,169.969 46.622 C 171.241 46.862,173.798 47.339,174.596 47.485 C 175.028 47.564,176.089 47.760,176.953 47.921 C 178.637 48.236,179.221 48.344,181.667 48.797 C 182.532 48.957,183.592 49.158,184.024 49.244 C 184.457 49.329,185.512 49.518,186.369 49.664 C 187.227 49.809,187.991 49.991,188.068 50.067 C 188.271 50.271,188.268 70.379,188.064 70.583 C 187.959 70.688,187.047 70.675,185.568 70.548 C 179.689 70.039,178.490 69.972,169.795 69.666 C 166.530 69.552,163.823 69.423,163.779 69.380 C 163.736 69.337,163.696 63.667,163.692 56.781 L 163.684 44.260 162.530 41.903 C 161.498 39.797,159.705 36.018,158.221 32.824 C 157.931 32.200,157.226 30.707,156.655 29.507 L 155.616 27.324 153.801 26.382 C 152.803 25.864,150.886 24.834,149.542 24.094 C 148.197 23.354,146.233 22.293,145.177 21.738 C 144.120 21.182,142.313 20.218,141.161 19.595 C 140.009 18.973,138.516 18.169,137.844 17.810 C 137.172 17.450,135.943 16.792,135.114 16.347 C 133.234 15.339,133.558 15.305,130.770 16.815 C 127.983 18.325,122.738 21.141,121.257 21.922 C 120.681 22.226,119.578 22.820,118.806 23.241 C 118.034 23.662,116.000 24.753,114.285 25.666 L 111.168 27.324 109.824 30.118 C 109.085 31.654,108.281 33.344,108.036 33.872 C 107.791 34.400,106.560 37.039,105.301 39.738 L 103.012 44.643 103.012 58.722 L 103.012 72.800 102.619 72.880 C 102.403 72.923,101.205 73.085,99.956 73.239 C 98.708 73.394,97.215 73.595,96.639 73.687 C 96.063 73.780,94.491 74.012,93.147 74.204 C 90.033 74.649,83.671 75.689,81.536 76.103 C 81.104 76.187,80.083 76.383,79.267 76.539 C 78.450 76.695,76.840 77.020,75.687 77.262 C 74.535 77.503,73.160 77.785,72.632 77.888 C 72.104 77.991,71.243 78.186,70.718 78.322 C 68.909 78.790,68.864 78.751,68.375 76.299 C 67.521 72.022,67.561 71.715,69.065 71.073 L 70.058 70.648 70.931 71.139 C 76.509 74.275,83.274 70.069,81.184 64.766 L 80.842 63.899 81.451 63.225 C 83.006 61.503,81.816 59.616,78.676 58.826 C 77.632 58.563,77.568 58.431,78.108 57.650 C 81.580 52.633,74.612 46.636,69.522 50.260 C 68.923 50.687,68.175 50.750,68.035 50.385 C 67.982 50.248,67.522 49.829,67.012 49.453 C 63.285 46.705,58.214 48.440,56.738 52.967 C 56.419 53.946,56.380 53.976,54.911 54.394 C 52.783 54.997,51.090 56.513,50.017 58.773 C 49.681 59.481,49.308 60.061,49.187 60.061 C 48.077 60.061,46.182 62.981,46.184 64.688 C 46.187 68.065,48.727 70.061,52.925 69.988 C 55.219 69.948,55.278 69.962,57.089 70.993 C 58.012 71.518,59.335 71.878,61.021 72.062 L 62.244 72.196 62.299 73.068 C 62.354 73.943,61.956 77.610,61.602 79.484 L 61.413 80.488 60.219 80.843 C 59.563 81.039,58.453 81.352,57.754 81.539 C 54.477 82.416,53.053 82.825,49.236 83.984 C 43.310 85.783,42.968 85.892,37.975 87.559 C 26.313 91.453,18.931 95.200,12.484 100.498 C 8.927 103.421,6.626 106.111,8.165 105.546 C 8.286 105.502,9.268 105.386,10.347 105.288 C 11.426 105.191,12.938 105.032,13.706 104.935 C 14.474 104.838,16.356 104.640,17.887 104.494 C 21.209 104.178,20.946 104.464,20.949 101.168 C 20.952 98.264,20.911 98.387,22.228 97.267 C 23.272 96.378,23.298 96.379,24.599 97.337 L 25.666 98.122 25.666 100.906 C 25.666 104.155,25.491 103.926,27.798 103.707 C 29.766 103.520,35.631 103.221,40.906 103.038 C 44.855 102.901,44.515 103.232,44.523 99.520 L 44.530 96.639 45.560 95.722 C 46.819 94.602,47.014 94.641,48.974 96.410 C 49.071 96.498,49.188 97.910,49.236 99.572 L 49.323 102.575 58.315 102.663 C 63.261 102.711,67.444 102.688,67.612 102.613 C 67.887 102.490,67.918 102.158,67.918 99.352 L 67.918 96.229 69.091 95.255 C 70.507 94.080,70.228 94.075,71.588 95.306 L 72.719 96.330 72.807 99.627 L 72.894 102.924 74.902 103.029 C 76.006 103.086,78.835 103.224,81.187 103.335 C 83.540 103.447,86.189 103.616,87.073 103.711 C 87.957 103.807,89.313 103.885,90.085 103.885 L 91.488 103.885 91.488 100.501 L 91.488 97.118 92.644 95.939 L 93.800 94.761 94.934 95.962 C 96.401 97.516,96.377 97.429,96.377 101.182 L 96.377 104.393 96.945 104.494 C 97.257 104.549,98.337 104.667,99.345 104.754 C 103.379 105.105,105.246 105.291,106.329 105.450 C 106.953 105.542,108.132 105.666,108.948 105.727 C 109.764 105.787,110.746 105.901,111.131 105.979 C 111.515 106.057,112.516 106.175,113.357 106.241 L 114.884 106.360 114.884 102.813 L 114.884 99.266 115.960 98.258 C 117.315 96.988,117.416 96.995,118.707 98.452 L 119.773 99.654 119.773 103.232 C 119.773 107.212,119.735 107.087,120.995 107.264 C 122.166 107.428,125.117 107.872,126.408 108.079 C 127.032 108.179,127.739 108.292,127.979 108.330 C 128.219 108.368,128.926 108.487,129.550 108.593 C 130.175 108.699,131.353 108.895,132.169 109.028 C 132.986 109.161,134.400 109.410,135.312 109.580 C 136.224 109.751,137.246 109.894,137.582 109.899 L 138.193 109.908 138.280 106.187 L 138.368 102.467 139.356 101.517 C 140.653 100.271,140.837 100.292,142.115 101.833 L 143.164 103.099 143.166 120.758 C 143.168 134.758,143.124 138.435,142.950 138.501 C 142.648 138.617,138.878 137.686,138.551 137.415 C 138.331 137.232,138.279 136.512,138.240 133.155 L 138.193 129.114 137.320 128.898 C 136.089 128.595,130.983 127.523,128.416 127.030 C 124.778 126.331,123.283 126.030,122.654 125.870 C 122.270 125.773,121.484 125.677,120.908 125.657 L 119.860 125.622 119.813 129.419 L 119.766 133.217 119.289 133.211 C 118.564 133.202,115.718 132.603,115.276 132.366 C 114.889 132.160,114.884 132.112,114.884 128.420 C 114.884 125.749,114.826 124.646,114.680 124.556 C 114.446 124.412,113.562 124.225,111.916 123.972 C 111.292 123.876,109.996 123.676,109.035 123.527 C 104.429 122.813,101.564 122.399,98.821 122.052 C 98.197 121.972,97.490 121.859,97.250 121.799 C 96.370 121.580,96.329 121.736,96.306 125.423 C 96.294 127.408,96.213 128.911,96.113 129.010 C 95.938 129.184,92.030 128.817,91.667 128.593 C 91.555 128.523,91.488 127.163,91.488 124.919 C 91.488 120.834,91.585 121.062,89.793 120.898 C 89.237 120.847,88.114 120.729,87.298 120.636 C 86.482 120.542,84.518 120.346,82.933 120.200 C 81.349 120.054,79.227 119.857,78.219 119.762 C 77.211 119.668,75.582 119.549,74.600 119.499 L 72.814 119.407 72.767 122.864 L 72.719 126.320 70.624 126.256 C 67.685 126.166,67.918 126.474,67.918 122.660 C 67.918 118.747,68.077 118.993,65.444 118.835 C 59.242 118.462,49.705 118.204,49.464 118.404 C 49.306 118.536,49.231 119.449,49.196 121.668 L 49.149 124.749 46.835 124.798 L 44.522 124.846 44.519 121.655 C 44.518 119.900,44.450 118.358,44.368 118.229 C 44.210 117.980,30.512 118.070,27.237 118.341 L 25.753 118.464 25.705 121.458 L 25.658 124.452 23.495 124.577 C 20.740 124.736,20.952 124.973,20.949 121.727 C 20.946 118.306,21.120 118.542,18.674 118.639 C 14.775 118.794,12.636 118.913,10.825 119.075 C 9.817 119.165,7.870 119.331,6.499 119.444 C 3.545 119.686,3.604 119.632,4.619 121.159 C 7.532 125.541,15.983 129.399,26.102 130.967 C 34.574 132.279,41.218 132.703,54.387 132.769 C 66.753 132.832,69.115 133.207,74.814 136.015 C 80.201 138.670,84.465 143.150,86.108 147.879 C 87.366 151.502,87.265 154.471,85.741 158.708 C 83.249 165.638,89.098 168.564,108.773 170.229 C 125.226 171.621,219.819 171.865,249.847 170.592 C 259.113 170.199,269.791 169.556,271.802 169.269 C 272.163 169.218,273.361 169.101,274.465 169.010 C 291.971 167.567,297.929 164.341,291.693 159.681 C 287.493 156.542,276.162 152.205,263.378 148.842 C 262.418 148.590,260.886 148.184,259.974 147.940 C 259.062 147.696,257.883 147.401,257.355 147.284 C 256.827 147.167,255.962 146.941,255.434 146.782 C 254.906 146.623,253.374 146.223,252.030 145.892 C 250.685 145.562,248.643 145.043,247.490 144.739 C 243.978 143.812,242.327 143.373,240.594 142.906 C 238.510 142.344,235.086 141.428,234.395 141.247 C 232.854 140.844,218.981 136.801,218.245 136.540 C 218.005 136.455,217.220 136.217,216.499 136.010 C 215.779 135.804,214.993 135.568,214.753 135.487 C 214.513 135.405,212.903 134.892,211.174 134.347 C 208.242 133.423,200.958 130.939,200.175 130.596 C 199.983 130.512,199.000 130.155,197.992 129.803 C 196.175 129.169,190.881 127.130,189.873 126.677 C 189.585 126.547,188.856 126.235,188.253 125.983 C 177.189 121.366,170.263 116.329,169.933 112.658 C 169.573 108.645,173.760 106.090,187.080 102.198 C 187.917 101.953,188.590 101.766,190.790 101.167 C 191.342 101.017,192.030 100.827,192.318 100.745 C 192.606 100.663,193.942 100.315,195.286 99.972 C 196.630 99.629,198.005 99.271,198.341 99.175 C 198.677 99.080,199.502 98.876,200.175 98.722 C 200.847 98.568,201.632 98.374,201.921 98.291 C 202.209 98.208,203.034 98.012,203.754 97.856 C 204.474 97.700,206.006 97.349,207.158 97.075 C 209.284 96.571,212.412 95.846,214.317 95.416 C 217.419 94.717,219.447 94.247,219.991 94.102 C 220.327 94.012,221.702 93.667,223.047 93.335 C 227.372 92.267,228.234 92.023,231.165 91.035 C 240.840 87.775,240.638 84.672,230.467 80.324 C 229.747 80.016,228.922 79.661,228.634 79.536 C 226.798 78.736,218.953 76.075,217.099 75.624 C 216.721 75.531,215.941 75.326,215.364 75.168 C 214.468 74.922,213.004 74.583,209.603 73.833 C 208.012 73.483,201.962 72.443,200.000 72.182 C 199.616 72.131,198.791 72.014,198.167 71.921 C 197.543 71.829,196.373 71.674,195.567 71.577 C 194.762 71.480,194.035 71.359,193.952 71.308 C 193.633 71.110,193.769 51.333,194.091 51.209 C 194.367 51.104,197.192 51.554,198.217 51.867 C 198.869 52.067,198.831 52.167,199.639 48.101 C 199.936 46.603,199.872 46.514,198.340 46.280 C 197.053 46.083,194.397 45.645,192.842 45.374 C 192.265 45.273,191.598 45.165,191.357 45.134 C 191.117 45.103,190.410 44.989,189.786 44.881 C 189.162 44.773,187.905 44.560,186.993 44.409 C 186.080 44.257,184.980 44.070,184.548 43.991 C 184.116 43.913,182.977 43.731,182.017 43.585 C 181.056 43.440,179.092 43.115,177.652 42.864 C 176.211 42.612,174.589 42.339,174.047 42.258 C 172.709 42.056,172.468 41.892,172.076 40.913 C 171.792 40.203,171.032 38.542,168.657 33.435 C 168.478 33.051,168.022 32.030,167.644 31.165 C 166.126 27.700,164.569 24.251,163.642 22.303 L 162.666 20.250 156.104 16.733 C 152.495 14.798,148.952 12.886,148.232 12.484 C 147.512 12.081,146.137 11.336,145.177 10.826 C 143.672 10.028,140.653 8.412,134.855 5.300 C 133.158 4.389,133.705 4.331,131.209 5.687 M265.823 21.064 C 262.829 21.535,260.008 23.717,258.469 26.754 C 257.987 27.705,257.829 27.742,256.694 27.174 C 252.098 24.874,246.411 26.932,244.071 31.741 C 243.014 33.913,242.894 35.364,243.486 38.789 C 243.616 39.542,243.417 39.699,242.113 39.869 C 238.318 40.364,234.245 43.772,232.980 47.510 C 230.086 56.064,240.530 64.104,249.912 60.547 C 251.505 59.943,252.152 59.892,254.038 60.225 C 255.449 60.474,255.762 60.503,257.598 60.552 L 258.802 60.585 258.696 61.851 C 258.572 63.336,258.136 67.002,257.893 68.601 C 257.644 70.239,257.595 70.266,255.232 70.049 C 254.143 69.950,252.466 69.860,251.506 69.850 C 250.546 69.841,248.071 69.754,246.006 69.656 C 231.641 68.980,214.404 68.776,214.404 69.282 C 214.404 69.385,216.771 69.822,220.340 70.379 C 220.869 70.462,221.694 70.611,222.174 70.710 C 224.657 71.224,226.648 71.615,227.586 71.771 C 228.162 71.867,228.869 72.013,229.158 72.095 C 229.446 72.177,230.310 72.375,231.078 72.535 C 231.846 72.694,232.750 72.900,233.086 72.993 C 233.422 73.085,234.797 73.428,236.141 73.756 C 243.131 75.460,248.155 77.032,253.601 79.219 C 267.824 84.932,271.030 91.077,262.407 96.101 C 258.545 98.351,256.499 100.018,255.492 101.737 C 251.560 108.446,262.480 115.562,283.544 120.017 C 284.168 120.149,286.486 120.653,288.695 121.137 C 297.156 122.990,305.234 124.508,313.488 125.796 C 314.448 125.946,315.705 126.146,316.281 126.242 C 319.577 126.787,323.390 127.290,328.066 127.797 C 328.979 127.896,330.393 128.057,331.209 128.155 C 334.486 128.549,335.797 128.683,338.891 128.940 C 340.668 129.088,342.868 129.282,343.780 129.372 C 345.342 129.526,348.739 129.756,354.343 130.088 C 363.478 130.628,374.353 130.698,378.263 130.240 C 383.805 129.591,384.460 129.483,387.429 128.738 C 401.636 125.171,397.166 116.835,378.001 111.157 C 376.685 110.767,375.401 110.446,371.628 109.562 C 371.052 109.427,369.873 109.189,369.009 109.032 C 368.145 108.876,366.849 108.642,366.128 108.511 C 364.156 108.153,361.772 107.795,358.533 107.370 C 345.542 105.663,335.382 101.047,339.165 98.568 C 340.433 97.737,342.875 97.422,350.764 97.072 C 357.069 96.792,358.517 96.724,362.025 96.548 C 365.366 96.381,371.168 96.117,375.207 95.950 C 381.484 95.689,384.205 95.419,386.207 94.857 C 393.820 92.718,388.534 86.798,377.128 84.688 C 376.024 84.484,374.766 84.246,374.334 84.159 C 373.270 83.946,372.208 83.748,371.890 83.705 C 371.534 83.656,369.844 83.356,368.049 83.024 C 365.917 82.630,361.934 81.917,360.105 81.602 C 359.241 81.453,358.180 81.266,357.748 81.187 C 356.213 80.906,351.636 80.132,346.923 79.356 C 346.010 79.206,344.557 78.965,343.693 78.820 C 342.828 78.676,341.650 78.484,341.074 78.394 C 340.498 78.304,339.280 78.109,338.368 77.960 C 337.455 77.812,336.434 77.650,336.098 77.599 C 335.762 77.549,335.055 77.433,334.526 77.340 C 333.998 77.248,332.977 77.087,332.257 76.984 C 331.536 76.881,330.515 76.729,329.987 76.648 C 325.569 75.965,322.002 75.455,316.549 74.727 C 314.970 74.516,314.907 74.455,314.567 72.807 C 313.855 69.361,314.013 68.442,315.319 68.442 C 315.501 68.442,315.698 68.363,315.757 68.267 C 315.817 68.171,316.295 68.093,316.821 68.093 C 318.082 68.093,318.904 67.729,319.349 66.976 C 319.578 66.587,319.928 66.294,320.313 66.167 C 320.645 66.057,321.131 65.792,321.392 65.578 C 321.654 65.364,322.222 65.010,322.654 64.792 C 327.397 62.398,326.117 56.243,320.762 55.690 C 319.136 55.522,318.813 55.321,318.813 54.479 C 318.813 53.757,318.131 52.983,316.610 51.979 C 310.800 48.144,303.073 50.035,303.300 55.235 L 303.361 56.640 302.750 56.810 C 299.018 57.851,298.323 62.068,301.528 64.227 C 302.320 64.761,303.635 65.292,304.179 65.296 C 304.341 65.298,304.643 65.601,304.850 65.969 C 305.485 67.098,306.642 67.529,308.163 67.203 C 309.043 67.014,309.264 67.100,310.485 68.101 C 310.769 68.334,309.668 73.062,309.216 73.557 C 309.146 73.634,307.878 73.569,306.399 73.414 C 304.920 73.259,302.375 73.018,300.742 72.879 C 299.110 72.740,296.831 72.543,295.679 72.443 C 294.526 72.342,292.994 72.230,292.274 72.193 C 291.554 72.157,289.943 72.043,288.695 71.940 C 285.987 71.717,281.557 71.418,279.616 71.327 C 278.848 71.291,276.766 71.168,274.989 71.054 C 273.213 70.940,270.794 70.796,269.613 70.735 C 267.987 70.651,267.427 70.561,267.301 70.362 C 266.397 68.945,265.177 63.614,265.005 60.327 C 264.950 59.286,264.952 59.282,265.584 58.939 L 266.219 58.596 267.304 59.681 C 269.763 62.140,274.892 63.669,279.139 63.208 C 286.159 62.446,290.316 59.282,289.478 55.336 C 289.216 54.102,289.171 54.173,290.367 53.952 C 291.391 53.763,291.454 53.739,293.152 52.918 C 298.917 50.128,298.992 43.808,293.294 40.994 C 291.475 40.096,289.084 39.459,287.533 39.459 C 287.153 39.459,287.070 39.347,286.897 38.595 C 286.109 35.182,283.076 32.822,279.107 32.531 C 277.454 32.409,277.260 32.296,277.256 31.450 C 277.227 25.384,271.492 20.174,265.823 21.064 M138.938 34.645 C 138.974 38.850,138.935 40.077,138.763 40.186 C 138.371 40.435,127.981 40.365,127.966 40.113 C 127.953 39.911,127.960 30.714,127.973 29.635 L 127.979 29.153 133.435 29.199 L 138.891 29.245 138.938 34.645 M147.534 59.712 C 147.534 65.089,147.475 69.495,147.403 69.501 C 146.725 69.561,143.556 69.580,143.387 69.524 C 143.217 69.468,143.169 67.783,143.169 61.882 C 143.169 54.576,143.157 54.305,142.831 54.131 C 142.385 53.892,124.689 53.882,124.062 54.121 L 123.614 54.291 123.614 62.392 C 123.614 69.291,123.576 70.526,123.359 70.706 C 123.121 70.904,119.834 71.227,119.431 71.092 C 119.228 71.024,119.163 50.253,119.366 50.051 C 119.430 49.987,125.794 49.935,133.508 49.935 L 147.534 49.935 147.534 59.712 M41.018 107.092 C 40.963 107.150,38.920 107.275,36.478 107.369 C 29.557 107.637,25.953 107.894,25.803 108.130 C 25.730 108.244,25.670 109.616,25.668 111.180 C 25.665 114.400,25.596 114.255,27.138 114.237 C 32.536 114.174,44.185 113.850,44.332 113.759 C 44.583 113.604,44.596 107.443,44.346 107.288 C 44.101 107.137,41.140 106.963,41.018 107.092 M49.439 107.255 C 49.287 107.439,49.241 108.402,49.276 110.717 L 49.323 113.924 54.125 114.041 C 60.273 114.191,63.919 114.320,65.976 114.460 C 67.256 114.547,67.646 114.519,67.763 114.335 C 68.034 113.907,67.952 107.840,67.670 107.454 C 67.334 106.994,49.814 106.803,49.439 107.255 M72.938 107.476 C 72.760 107.657,72.770 114.666,72.948 114.776 C 73.025 114.824,74.302 114.949,75.785 115.054 C 77.268 115.159,79.345 115.322,80.402 115.416 C 81.458 115.510,82.754 115.626,83.282 115.673 C 83.811 115.720,85.146 115.843,86.251 115.947 C 87.355 116.050,88.926 116.197,89.742 116.274 C 90.559 116.350,91.285 116.379,91.357 116.337 C 91.540 116.231,91.523 108.815,91.340 108.702 C 91.258 108.652,90.610 108.566,89.900 108.511 C 89.189 108.456,87.586 108.330,86.338 108.231 C 83.525 108.007,82.520 107.946,78.132 107.730 C 76.211 107.635,74.286 107.510,73.854 107.451 C 73.422 107.392,73.010 107.403,72.938 107.476 M19.293 108.345 C 19.197 108.382,17.665 108.534,15.888 108.682 C 9.618 109.206,6.549 109.506,4.918 109.754 C 4.056 109.885,2.984 112.522,2.913 114.689 L 2.881 115.670 4.016 115.652 C 4.640 115.642,5.661 115.586,6.285 115.528 C 10.174 115.168,11.956 115.027,14.753 114.861 C 16.482 114.759,18.564 114.624,19.380 114.561 L 20.864 114.448 20.912 111.590 C 20.968 108.275,20.725 107.789,19.293 108.345 M96.495 109.247 C 96.405 109.393,96.330 112.855,96.360 115.448 C 96.380 117.210,96.171 117.045,98.734 117.322 C 100.306 117.491,103.322 117.880,105.456 118.189 C 106.080 118.279,107.455 118.479,108.512 118.632 C 109.568 118.786,111.021 118.992,111.742 119.090 C 112.462 119.188,113.398 119.346,113.821 119.441 C 114.909 119.683,114.896 119.735,114.844 115.309 L 114.797 111.306 114.099 111.185 C 112.277 110.869,109.752 110.548,104.059 109.910 C 102.763 109.765,101.034 109.569,100.218 109.476 C 97.491 109.163,96.582 109.108,96.495 109.247 M119.773 116.183 C 119.773 118.434,119.838 120.316,119.917 120.365 C 119.996 120.414,120.998 120.623,122.143 120.829 C 123.288 121.036,124.814 121.311,125.535 121.441 C 126.255 121.571,129.358 122.187,132.431 122.810 C 135.504 123.432,138.079 123.883,138.153 123.810 C 138.429 123.537,138.218 115.372,137.931 115.224 C 137.651 115.080,137.128 114.972,133.304 114.264 C 128.243 113.328,126.805 113.076,124.400 112.702 C 123.440 112.553,122.275 112.354,121.811 112.261 C 121.348 112.167,120.700 112.091,120.371 112.091 L 119.773 112.091 119.773 116.183 " stroke="none" fill="#ffffff" fill-rule="evenodd"></path></g></svg>